<svg id="SvgjsSvg1011" width="288" height="288" xmlns="http://www.w3.org/2000/svg" version="1.1" xmlns:xlink="http://www.w3.org/1999/xlink" xmlns:svgjs="http://svgjs.com/svgjs"><defs id="SvgjsDefs1012"></defs><g id="SvgjsG1013"><svg xmlns="http://www.w3.org/2000/svg" baseProfile="tiny" version="1.2" viewBox="0 0 24 24" width="288" height="288"><path d="M8 3H6a2.99 2.99 0 0 0-2.119.881A2.99 2.99 0 0 0 3 6v2c0 .825.337 1.575.881 2.119A2.99 2.99 0 0 0 6 11h2a2.99 2.99 0 0 0 2.119-.881A2.99 2.99 0 0 0 11 8V6a2.99 2.99 0 0 0-.881-2.119A2.99 2.99 0 0 0 8 3zm10 0h-2a2.99 2.99 0 0 0-2.119.881A2.99 2.99 0 0 0 13 6v2c0 .825.337 1.575.881 2.119A2.99 2.99 0 0 0 16 11h2a2.99 2.99 0 0 0 2.119-.881A2.99 2.99 0 0 0 21 8V6a2.99 2.99 0 0 0-.881-2.119A2.99 2.99 0 0 0 18 3zM8 13H6a2.99 2.99 0 0 0-2.119.881A2.99 2.99 0 0 0 3 16v2c0 .825.337 1.575.881 2.119A2.99 2.99 0 0 0 6 21h2a2.99 2.99 0 0 0 2.119-.881A2.99 2.99 0 0 0 11 18v-2a2.99 2.99 0 0 0-.881-2.119A2.99 2.99 0 0 0 8 13zm10 0h-2a2.99 2.99 0 0 0-2.119.881A2.99 2.99 0 0 0 13 16v2c0 .825.337 1.575.881 2.119A2.99 2.99 0 0 0 16 21h2a2.99 2.99 0 0 0 2.119-.881A2.99 2.99 0 0 0 21 18v-2a2.99 2.99 0 0 0-.881-2.119A2.99 2.99 0 0 0 18 13z" fill="#ffffff" class="color000 svgShape"></path></svg></g></svg>