<svg id="SvgjsSvg1011" width="288" height="288" xmlns="http://www.w3.org/2000/svg" version="1.1" xmlns:xlink="http://www.w3.org/1999/xlink" xmlns:svgjs="http://svgjs.com/svgjs"><defs id="SvgjsDefs1012"></defs><g id="SvgjsG1013"><svg xmlns="http://www.w3.org/2000/svg" fill="none" viewBox="0 0 24 24" width="288" height="288"><path fill="#ffffff" d="M3 5.5A1.5 1.5 0 0 1 4.5 4h15a1.5 1.5 0 0 1 0 3h-15A1.5 1.5 0 0 1 3 5.5zm0 6A1.5 1.5 0 0 1 4.5 10h11a1.5 1.5 0 0 1 0 3h-11A1.5 1.5 0 0 1 3 11.5zM4.5 16a1.5 1.5 0 0 0 0 3h7a1.5 1.5 0 0 0 0-3h-7z" class="color000 svgShape"></path></svg></g></svg>